<svg xmlns="http://www.w3.org/2000/svg" width="161" height="109" viewBox="0 0 161 109" fill="none"><path d="M32.9324 76.9065H28.567V59.236L22.2898 76.9065H18.5937L12.3165 59.236V76.9065H7.95117V53.3033H13.8778L20.4417 71.3566L27.0057 53.3033H32.9324V76.9065ZM71.0016 79.9237H67.3253V76.9065H54.6435V79.9237H51.0503V73.6779H52.6042L59.0726 59.236H62.8962L69.3645 73.6779H71.0016V79.9237V79.9237ZM64.585 73.6779L60.9844 64.9774L57.3838 73.6779H64.585V73.6779ZM130.745 52.793C130.575 54.0476 130.007 55.0842 129.04 55.9029C128.074 56.7216 126.889 57.1309 125.487 57.1309C124.064 57.1309 122.88 56.7216 121.935 55.9029C120.989 55.0842 120.421 54.0476 120.23 52.793H123.416C123.544 53.2608 123.799 53.6223 124.181 53.8775C124.563 54.1326 124.999 54.2602 125.487 54.2602C126.613 54.2602 127.304 53.7711 127.558 52.793H130.745V52.793ZM133.644 76.9065H129.407V65.4558L121.568 76.9065H117.33V59.236H121.568V70.6867L129.407 59.236H133.644V76.9065ZM152.846 76.9065H147.493L141.12 68.4221V76.9065H136.883V59.236H141.12V67.3377L147.429 59.236H152.464L145.422 67.5291L152.846 76.9065V76.9065ZM48.9156 76.9096H35.4976V59.2329H48.9156V62.4099H39.7397V66.4946H48.5275V69.6717H39.7397V73.7325H48.9156V76.9096ZM115.496 76.9065H111.319H110.78L109.115 72.3882H103.651L101.986 76.9065H97.7303H97.2699L104.471 59.236H108.295L115.496 76.9065ZM107.955 69.242L106.383 64.9773L104.811 69.242H107.955V69.242ZM95.4358 76.911H90.6243L84.1879 59.3681L77.7514 76.911H72.94L82.2761 53.3078H86.0997L95.4358 76.911V76.911Z" stroke="#70706F" stroke-width="0.0762" stroke-miterlimit="22.9256" stroke-linecap="round" stroke-linejoin="round"></path><path d="M32.9324 76.9065H28.567V59.236L22.2898 76.9065H18.5937L12.3165 59.236V76.9065H7.95117V53.3033H13.8778L20.4417 71.3566L27.0057 53.3033H32.9324V76.9065ZM71.0016 79.9237H67.3253V76.9065H54.6435V79.9237H51.0503V73.6779H52.6042L59.0726 59.236H62.8962L69.3645 73.6779H71.0016V79.9237ZM64.585 73.6779L60.9844 64.9774L57.3838 73.6779H64.585ZM130.745 52.793C130.575 54.0476 130.007 55.0842 129.04 55.9029C128.074 56.7216 126.889 57.1309 125.487 57.1309C124.064 57.1309 122.88 56.7216 121.935 55.9029C120.989 55.0842 120.421 54.0476 120.23 52.793H123.416C123.544 53.2608 123.799 53.6223 124.181 53.8775C124.563 54.1326 124.999 54.2602 125.487 54.2602C126.613 54.2602 127.303 53.7711 127.558 52.793H130.745ZM133.644 76.9065H129.407V65.4558L121.568 76.9065H117.33V59.236H121.568V70.6867L129.407 59.236H133.644V76.9065ZM152.846 76.9065H147.493L141.12 68.4221V76.9065H136.883V59.236H141.12V67.3377L147.429 59.236H152.464L145.422 67.5291L152.846 76.9065ZM48.9156 76.9096H35.4976V59.2329H48.9156V62.4099H39.7397V66.4946H48.5275V69.6717H39.7397V73.7325H48.9156V76.9096ZM115.496 76.9065H111.319H110.78L109.115 72.3882H103.651L101.986 76.9065H97.7303H97.2699L104.471 59.236H108.295L115.496 76.9065ZM107.955 69.242L106.383 64.9773L104.811 69.242H107.955ZM95.4358 76.911H90.6244L84.1879 59.3681L77.7514 76.911H72.94L82.2761 53.3078H86.0997L95.4358 76.911Z" fill="#70706F"></path><path d="M78.9946 28.477C77.6018 29.3177 77.4286 30.4427 79.5358 31.6445C80.5707 32.2348 81.7364 32.6288 82.6396 33.2511C85.2413 35.0439 84.3251 37.6223 81.4451 38.509L81.4465 36.9914C82.6611 36.6278 83.1153 35.598 82.0597 34.7551C80.807 33.7548 78.8052 33.4913 77.778 32.4745C75.9858 31.0578 75.8511 28.6806 77.491 27.1185C77.9979 26.6356 78.5635 26.3598 79.1715 26.0604C79.1984 26.8175 79.2253 27.5753 79.2522 28.3329L78.9946 28.477V28.477ZM72.7441 21.7092C72.8642 21.1487 73.0709 21.2287 73.4224 21.1335C73.703 21.0576 73.7806 21.0013 74.0831 20.7422C73.8509 21.7255 73.406 21.278 72.7441 21.7092ZM81.5586 15.3606C81.5409 16.0994 81.5218 16.8396 81.5018 17.581C80.8181 17.4338 80.117 17.3618 79.446 17.347L79.3965 15.3735C79.7252 15.5166 80.0852 15.5957 80.4629 15.5957C80.8518 15.5957 81.2221 15.5119 81.5586 15.3606V15.3606ZM81.4116 20.7421C81.3009 24.4445 81.1747 28.1699 81.0647 31.8926C80.6347 31.6932 80.2049 31.4936 79.7949 31.262L79.5231 20.423C80.0041 20.3945 80.6275 20.5352 81.0712 20.6457C81.1837 20.6737 81.298 20.7055 81.4116 20.7421V20.7421ZM80.9873 34.6226C80.9168 37.2375 80.8582 39.8479 80.8222 42.445C80.5707 42.3078 80.3156 42.1716 80.0648 42.0299L79.8668 34.1312C80.2444 34.2831 80.6246 34.4379 80.9873 34.6226ZM80.7989 44.4773C80.7894 45.5306 80.7842 46.5812 80.7839 47.6286C80.7839 48.149 80.2188 48.1722 80.2052 47.6266L80.1192 44.1981C80.3011 44.2685 80.542 44.3629 80.7989 44.4773V44.4773ZM80.4629 9.90918C81.5521 9.90918 82.4351 10.7931 82.4351 11.8835C82.4351 12.9739 81.5521 13.8578 80.4629 13.8578C79.3736 13.8578 78.4906 12.9739 78.4906 11.8835C78.4906 10.7931 79.3736 9.90918 80.4629 9.90918ZM83.0004 13.3536C82.5541 14.3613 81.5857 15.0594 80.4629 15.0594C79.34 15.0594 78.3717 14.3613 77.9254 13.3536C78.5495 13.9568 79.455 14.3364 80.4629 14.3364C81.4707 14.3364 82.3763 13.9568 83.0004 13.3536ZM82.8333 45.6636C82.6712 44.713 81.2173 44.1165 80.2104 43.7272C79.6682 43.5176 79.0814 43.312 78.599 43.0289C77.2962 42.2643 76.7535 40.6612 77.7181 39.4029C78.1107 38.8909 78.8831 38.2953 79.4923 38.0615L79.5127 39.3918C79.0333 39.7759 78.0872 40.2453 78.3327 41.1676C78.6814 42.4774 83.7156 43.59 82.9951 45.595C82.9587 45.6963 82.8521 45.7734 82.8333 45.6636V45.6636ZM85.3811 21.2589C86.1899 24.3866 84.0834 25.8198 81.7416 27.0454L81.802 24.7964C82.5311 24.2135 83.5041 23.6696 83.3701 22.1908C83.2641 21.0221 82.2468 20.4635 81.1822 20.1986C78.5984 19.5555 78.8857 20.3811 77.9325 20.6618C76.922 20.9594 75.1225 21.1499 74.3155 20.6041C74.1251 19.5788 75.8285 17.9612 76.7158 17.7825C77.2064 17.6837 77.4791 17.7822 77.9145 17.82C78.3591 17.8584 78.8251 17.8012 79.2762 17.8049C81.6953 17.8247 84.6952 18.6066 85.3811 21.2589V21.2589ZM76.0428 18.9748C75.8378 19.5406 76.7511 19.3777 76.4606 18.9183C76.4119 18.8413 76.1434 18.6971 76.0428 18.9748Z" stroke="#70706F" stroke-width="0.0762" stroke-miterlimit="22.9256" stroke-linecap="round" stroke-linejoin="round"></path><path d="M78.9946 28.477C77.6018 29.3177 77.4286 30.4427 79.5358 31.6445C80.5707 32.2348 81.7364 32.6288 82.6396 33.2511C85.2413 35.0439 84.3251 37.6223 81.4451 38.509L81.4465 36.9914C82.6611 36.6278 83.1153 35.598 82.0597 34.7551C80.807 33.7548 78.8052 33.4913 77.778 32.4745C75.9858 31.0578 75.8511 28.6806 77.491 27.1185C77.9979 26.6356 78.5635 26.3598 79.1715 26.0604C79.1984 26.8175 79.2253 27.5753 79.2522 28.3329L78.9946 28.477ZM72.7441 21.7092C72.8642 21.1487 73.0709 21.2287 73.4224 21.1335C73.703 21.0576 73.7806 21.0013 74.0831 20.7422C73.8509 21.7255 73.406 21.278 72.7441 21.7092ZM81.5586 15.3606C81.5409 16.0994 81.5218 16.8396 81.5018 17.581C80.8181 17.4338 80.117 17.3618 79.446 17.347L79.3965 15.3735C79.7252 15.5166 80.0852 15.5957 80.4629 15.5957C80.8518 15.5957 81.2221 15.5119 81.5586 15.3606ZM81.4116 20.7421C81.3009 24.4445 81.1747 28.1699 81.0647 31.8926C80.6347 31.6932 80.2049 31.4936 79.7949 31.262L79.5231 20.423C80.0041 20.3945 80.6275 20.5352 81.0712 20.6457C81.1837 20.6737 81.298 20.7055 81.4116 20.7421ZM80.9873 34.6226C80.9168 37.2375 80.8582 39.8479 80.8222 42.445C80.5707 42.3078 80.3156 42.1716 80.0648 42.0299L79.8668 34.1312C80.2444 34.2831 80.6246 34.4379 80.9873 34.6226ZM80.7989 44.4773C80.7894 45.5306 80.7842 46.5812 80.7839 47.6286C80.7839 48.149 80.2188 48.1722 80.2052 47.6266L80.1192 44.1981C80.3011 44.2685 80.542 44.3629 80.7989 44.4773ZM80.4629 9.90918C81.5521 9.90918 82.4351 10.7931 82.4351 11.8835C82.4351 12.9739 81.5521 13.8578 80.4629 13.8578C79.3736 13.8578 78.4906 12.9739 78.4906 11.8835C78.4906 10.7931 79.3736 9.90918 80.4629 9.90918ZM83.0004 13.3536C82.5541 14.3613 81.5857 15.0594 80.4629 15.0594C79.34 15.0594 78.3717 14.3613 77.9254 13.3536C78.5495 13.9568 79.455 14.3364 80.4629 14.3364C81.4707 14.3364 82.3763 13.9568 83.0004 13.3536ZM82.8333 45.6636C82.6712 44.713 81.2173 44.1165 80.2104 43.7272C79.6682 43.5176 79.0814 43.312 78.599 43.0289C77.2962 42.2643 76.7535 40.6612 77.7181 39.4029C78.1107 38.8909 78.8831 38.2953 79.4923 38.0615L79.5127 39.3918C79.0333 39.7759 78.0872 40.2453 78.3327 41.1676C78.6814 42.4774 83.7156 43.59 82.9951 45.595C82.9587 45.6963 82.8521 45.7734 82.8333 45.6636ZM85.3811 21.2589C86.1899 24.3866 84.0834 25.8198 81.7416 27.0454L81.802 24.7964C82.5311 24.2135 83.5041 23.6696 83.3701 22.1908C83.2641 21.0221 82.2468 20.4635 81.1822 20.1986C78.5984 19.5555 78.8857 20.3811 77.9325 20.6618C76.922 20.9594 75.1225 21.1499 74.3155 20.6041C74.1251 19.5788 75.8285 17.9612 76.7158 17.7825C77.2064 17.6837 77.4791 17.7822 77.9145 17.82C78.3591 17.8584 78.8251 17.8012 79.2762 17.8049C81.6953 17.8247 84.6952 18.6066 85.3811 21.2589ZM76.0428 18.9748C75.8378 19.5406 76.7511 19.3777 76.4606 18.9183C76.4119 18.8413 76.1434 18.6971 76.0428 18.9748Z" fill="#70706F"></path><path fill-rule="evenodd" clip-rule="evenodd" d="M41.7056 93.0351C43.1827 92.7016 44.1922 92.1679 44.7311 91.4366C44.8081 91.3328 44.8476 91.2365 44.8523 91.1525C44.8621 90.9746 44.7701 90.8857 44.5764 90.8857C44.2715 90.8857 43.9257 91.0092 43.5331 91.2563C43.1434 91.5033 42.7766 91.7998 42.4357 92.1432C42.0948 92.4866 41.8505 92.7831 41.7056 93.0351ZM51.7807 91.155C51.6611 90.8956 51.4459 90.7671 51.1382 90.7671C50.7792 90.7671 50.3739 90.8832 49.9224 91.1154C49.4738 91.3452 49.0416 91.6392 48.6318 91.9925C48.2218 92.3483 47.883 92.7065 47.6178 93.0722C47.3499 93.4353 47.2109 93.7343 47.1979 93.969C47.1894 94.1222 47.2284 94.2432 47.3119 94.3297C47.3956 94.4137 47.4986 94.4582 47.6182 94.4582C47.7977 94.4582 48.0492 94.3915 48.3697 94.263C48.6875 94.132 49.0432 93.9344 49.4368 93.6676C49.8275 93.4032 50.2313 93.0548 50.6481 92.6275C51.0621 92.1976 51.4397 91.7059 51.7807 91.155ZM52.5005 90.1914L53.684 90.7374C52.6503 92.2272 51.7447 93.5614 50.973 94.7423C50.2013 95.9233 49.6302 96.8225 49.26 97.4402C48.8897 98.0578 48.5623 98.6212 48.2808 99.1276L46.7325 98.6854C47.1565 98.0233 47.545 97.4377 47.8977 96.9313C48.2503 96.4273 48.5553 96.0122 48.8123 95.691C49.0665 95.3698 49.3472 95.0338 49.6543 94.683C49.898 94.3964 50.0449 94.2136 50.0978 94.132L50.0282 94.1024C49.9668 94.132 49.8567 94.216 49.6923 94.3569C49.0673 94.8387 48.4959 95.1771 47.9811 95.3698C47.4661 95.5626 47.042 95.6589 46.7115 95.6589C46.3725 95.6589 46.0499 95.5675 45.7467 95.3822C45.4698 95.2146 45.3297 94.9357 45.3244 94.542C44.6732 94.8438 43.6492 95.2592 43.1194 95.397C42.4573 95.5724 41.8742 95.6589 41.3727 95.6589C41.0394 95.6589 40.7407 95.5996 40.4764 95.4835C40.2123 95.3649 40.0101 95.2092 39.8727 95.0141C39.7325 94.8189 39.67 94.6089 39.6824 94.3841C39.1894 94.7557 38.9088 94.975 38.0258 95.3426C37.5157 95.5527 37.1395 95.6589 36.8916 95.6589C36.6408 95.6589 36.4364 95.5946 36.2782 95.4662C36.1202 95.3352 36.0462 95.1796 36.0564 94.9943C36.0747 94.6632 36.3629 94.1395 36.9266 93.423L36.7787 93.3167C35.6979 94.263 34.916 94.9054 34.4358 95.2438C33.9585 95.5798 33.6044 95.7503 33.3793 95.7503C33.1828 95.7503 33.0151 95.691 32.8733 95.5749C32.7346 95.4563 32.6721 95.2982 32.6832 95.0956C32.695 94.8831 32.8143 94.5792 33.0443 94.1815C33.2712 93.7862 33.5132 93.4279 33.7645 93.1068L33.5796 93.0499C33.3746 93.255 33.1095 93.5144 32.7901 93.8306C32.4735 94.1469 32.1466 94.4434 31.8153 94.7151C31.484 94.9894 31.1494 95.2166 30.8122 95.3921C30.4747 95.5699 30.1592 95.6589 29.8629 95.6589C29.5467 95.6589 29.2663 95.5774 29.0247 95.4118C28.7801 95.2487 28.668 95.0091 28.6853 94.6954C28.7 94.4285 28.7454 94.2259 28.8243 94.0876L30.1859 93.5243C30.1193 93.6972 30.085 93.8553 30.077 93.9986C30.0607 94.2951 30.1807 94.4434 30.4428 94.4434C30.7762 94.4434 31.3275 94.1074 32.0881 93.4378C32.5889 92.9857 33.0333 92.5731 33.4241 92.2025C33.8121 91.8319 34.1989 91.4317 34.5844 91.0018C34.9698 90.5744 35.349 90.1049 35.719 89.596L36.7502 90.1148L35.086 92.7535C34.7622 93.2525 34.5847 93.5786 34.5505 93.7343L34.5432 93.8652C34.5542 93.9245 34.5924 93.9542 34.6608 93.9542C34.8745 93.9542 35.4368 93.5737 36.3476 92.8152C36.6168 92.583 36.8538 92.368 37.064 92.1728C37.2743 91.9752 37.5286 91.7035 37.8328 91.3551C38.1339 91.0092 38.4619 90.5892 38.8223 90.1L39.919 90.6188L38.1715 93.1685C37.8636 93.5836 37.7074 93.885 37.6969 94.0752C37.6865 94.263 37.7754 94.3569 37.9691 94.3569C38.5534 94.3569 39.3311 93.8794 39.7959 93.5663C39.986 93.1167 40.2809 92.6768 40.6751 92.2445C41.0692 91.8146 41.5268 91.4218 42.0389 91.0735C42.554 90.7226 43.0878 90.4459 43.6375 90.2433C44.1844 90.0383 44.6914 89.9369 45.1587 89.9369C45.6316 89.9369 45.971 90.0333 46.1799 90.2236C46.3888 90.4138 46.4878 90.6337 46.4738 90.8857C46.4474 91.365 46.0856 91.8813 45.3886 92.4298C44.6916 92.9808 43.3399 93.4675 41.3333 93.8949C41.3062 93.9739 41.2917 94.0307 41.2894 94.0728C41.2791 94.258 41.3649 94.4063 41.5413 94.515C41.7175 94.6262 41.9652 94.6805 42.2843 94.6805C42.5236 94.6805 42.8223 94.6385 43.1803 94.552C44.0148 94.3505 44.739 94.0278 45.5146 93.6686C45.6771 93.2922 45.9438 92.8933 46.3147 92.4718C46.9407 91.7628 47.6918 91.1624 48.5651 90.6708C49.4412 90.1816 50.2381 89.9369 50.959 89.9369C51.4661 89.9369 51.8976 90.1198 52.2478 90.4854L52.5005 90.1914ZM59.0266 90.3076L60.1468 90.814L58.1489 93.8208C58.0775 93.927 58.0379 94.0258 58.0329 94.1172C58.0241 94.2754 58.1051 94.3569 58.2732 94.3569C58.4128 94.3569 58.6741 94.2679 59.0602 94.0876C59.3295 93.9567 59.6214 93.8306 59.9326 93.7145L59.5008 94.725C59.1484 94.9152 58.6956 95.1178 58.1451 95.3352C57.5919 95.5502 57.207 95.6589 56.9877 95.6589C56.811 95.6589 56.6542 95.6095 56.5143 95.5106C56.3773 95.4118 56.2941 95.2685 56.2674 95.0807L56.282 94.8164C56.3422 94.5002 56.6846 93.9739 57.3092 93.2402L57.2447 93.1685C57.212 93.1932 56.9559 93.3958 56.479 93.7763C54.9624 95.0314 53.8565 95.6589 53.1613 95.6589C52.979 95.6589 52.8112 95.6021 52.6581 95.4859C52.5049 95.3698 52.4359 95.1747 52.4509 94.9029C52.4614 94.7127 52.5498 94.4532 52.7188 94.1271C52.888 93.7985 53.1859 93.3044 53.6155 92.6447C54.048 91.9826 54.7067 90.9919 55.5945 89.6701L56.7252 90.1914L54.5474 93.465C54.438 93.6404 54.381 93.7442 54.3736 93.7763L54.3694 93.8504C54.3744 93.9665 54.4338 94.0258 54.5478 94.0258C54.6903 94.0258 54.8589 93.964 55.0566 93.8405C55.2543 93.717 55.6404 93.4328 56.2118 92.9907C56.953 92.415 57.514 91.9555 57.8918 91.6145C58.2696 91.2736 58.647 90.8363 59.0266 90.3076ZM84.9139 86.9105L86.3217 86.8512C86.2845 87.5257 86.5765 87.8617 87.2033 87.8617C87.7303 87.8617 88.3781 87.4812 89.1496 86.7178L89.8044 87.1921C89.6129 87.3577 89.4872 87.4663 89.4274 87.5182C88.5631 88.3113 87.6296 88.7066 86.6267 88.7066C85.4187 88.7066 84.8477 88.1087 84.9139 86.9105ZM86.9145 90.3076L88.0347 90.814L86.0368 93.8208C85.9626 93.927 85.9258 94.0258 85.9207 94.1172C85.912 94.2754 85.9901 94.3569 86.1611 94.3569C86.3007 94.3569 86.562 94.2679 86.948 94.0876C87.2174 93.9567 87.5092 93.8306 87.8205 93.7145L87.3886 94.725C87.0362 94.9152 86.5835 95.1178 86.033 95.3352C85.4799 95.5502 85.0949 95.6589 84.8755 95.6589C84.6989 95.6589 84.5421 95.6095 84.4022 95.5106C84.2624 95.4118 84.1791 95.2685 84.1553 95.0807L84.1699 94.8164C84.2272 94.5002 84.5696 93.9739 85.1942 93.2402L85.1326 93.1685C85.0971 93.1932 84.8409 93.3958 84.364 93.7763C82.8474 95.0314 81.7416 95.6589 81.0464 95.6589C80.864 95.6589 80.6963 95.6021 80.5431 95.4859C80.39 95.3698 80.321 95.1747 80.336 94.9029C80.3407 94.8171 80.3612 94.7173 80.3979 94.6037C80.1835 94.7123 79.8916 94.8582 79.8095 94.8977C79.5199 95.0367 79.1811 95.1823 78.794 95.3352C78.2408 95.5502 77.8558 95.6589 77.6365 95.6589C77.4598 95.6589 77.303 95.6095 77.1631 95.5106C77.0262 95.4118 76.9429 95.2685 76.9162 95.0807L76.9308 94.8164C76.991 94.5002 77.3334 93.9739 77.958 93.2402L77.8936 93.1685C77.8609 93.1932 77.6047 93.3958 77.1278 93.7763C75.6112 95.0314 74.5053 95.6589 73.8102 95.6589C73.6278 95.6589 73.46 95.6021 73.3069 95.4859C73.1538 95.3698 73.0847 95.1747 73.0998 94.9029C73.1038 94.8299 73.1193 94.7468 73.1464 94.6536C72.8613 94.7917 72.4976 94.9667 72.3576 95.0307C71.4414 95.4495 70.8126 95.6589 70.4715 95.6589C70.1809 95.6589 69.9402 95.5798 69.7437 95.4242C69.55 95.2686 69.4592 95.0561 69.4741 94.7843C69.483 94.6237 69.5439 94.4483 69.6512 94.2605C69.7586 94.0703 70.0115 93.6676 70.4103 93.0499C69.7271 93.0919 68.9294 93.2451 68.0231 93.5095L66.6338 95.7626L65.2726 95.3896L65.7814 94.6007C65.1468 94.926 64.3574 95.3189 64.0826 95.4316C63.7153 95.5823 63.392 95.6589 63.1128 95.6589C62.8478 95.6589 62.6263 95.5946 62.4539 95.4662C62.2816 95.3352 62.2031 95.1574 62.2155 94.9326C62.2388 94.5101 62.6158 93.8727 63.3467 93.0203C63.5354 92.8004 63.6581 92.6423 63.7147 92.5459L63.6458 92.5039C63.2864 92.7707 62.8739 93.0178 62.4086 93.2402C61.9128 93.4996 61.4556 93.628 61.0396 93.628C60.7176 93.628 60.4918 93.5391 60.3677 93.3612C60.2437 93.1809 60.1857 92.9931 60.1966 92.7955C60.2085 92.5805 60.3075 92.3359 60.491 92.0567L62.0635 89.5812L63.135 90.0407L61.935 91.9085C61.7733 92.1556 61.6939 92.3038 61.691 92.3557C61.6813 92.5311 61.7533 92.62 61.9129 92.62C62.0952 92.62 62.3597 92.5262 62.7034 92.3384C63.0443 92.1506 63.4179 91.8838 63.8159 91.5379C64.217 91.1896 64.5952 90.7893 64.9476 90.3397L65.928 90.7992L64.2623 93.465C64.0245 93.8504 63.8983 94.1246 63.8889 94.2951C63.8823 94.4137 63.9359 94.4755 64.0493 94.4854H64.1376C64.2797 94.4555 64.7567 94.2593 65.5685 93.8972C65.6587 93.8569 66.1692 93.626 66.5095 93.472L68.9333 89.7146L70.0867 90.1889L68.5557 92.5311C68.7204 92.4891 69.0945 92.4224 69.6776 92.3359C70.2254 92.2692 70.6377 92.2346 70.914 92.2346L72.14 90.2038L73.3091 90.6509L71.5846 93.4032C71.5041 93.5317 71.2335 93.933 71.2022 94.1889C71.1826 94.3485 71.2744 94.4285 71.4454 94.4285C71.6562 94.4285 72.0313 94.3002 72.5741 94.0579C72.7125 93.9962 73.2123 93.7872 73.6652 93.5985C73.8238 93.3327 74.0233 93.0147 74.2642 92.6447C74.6968 91.9826 75.3555 90.9919 76.2433 89.6701L77.3741 90.1914L75.1962 93.465C75.1221 93.5765 74.8248 94.0258 75.1966 94.0258C75.3391 94.0258 75.5077 93.964 75.7054 93.8405C75.9031 93.717 76.2892 93.4328 76.8606 92.9907C77.6018 92.415 78.1628 91.9555 78.5405 91.6145C78.9184 91.2736 79.2958 90.8363 79.6754 90.3076L80.7956 90.814L78.7978 93.8208C78.7264 93.927 78.6867 94.0258 78.6817 94.1172C78.673 94.2754 78.7539 94.3569 78.922 94.3569C79.0616 94.3569 79.3229 94.2679 79.7089 94.0876C79.9085 93.9906 80.5113 93.7235 80.9412 93.5327C81.0934 93.2806 81.2805 92.9847 81.5033 92.6447C81.933 91.9826 82.5917 90.9919 83.4795 89.6701L84.6131 90.1914L82.4324 93.465C82.3637 93.5782 82.065 94.0258 82.4328 94.0258C82.5753 94.0258 82.7468 93.964 82.9445 93.8405C83.1422 93.717 83.5254 93.4328 84.0997 92.9907C84.8408 92.415 85.399 91.9555 85.7768 91.6145C86.1546 91.2736 86.5349 90.8363 86.9145 90.3076ZM103.356 93.0351C104.833 92.7016 105.843 92.1679 106.382 91.4366C106.459 91.3328 106.498 91.2365 106.503 91.1525C106.513 90.9746 106.421 90.8857 106.227 90.8857C105.922 90.8857 105.576 91.0092 105.184 91.2563C104.794 91.5033 104.427 91.7998 104.086 92.1432C103.745 92.4866 103.501 92.7831 103.356 93.0351ZM128.499 88.1557L129.599 88.63L127.025 92.5756L127.191 92.667C128.227 91.7924 129.001 91.2044 129.51 90.898C130.017 90.5916 130.43 90.4409 130.746 90.4409C131.011 90.4409 131.212 90.525 131.351 90.6954C131.489 90.8659 131.551 91.0463 131.54 91.239C131.527 91.4811 131.352 91.8665 131.015 92.3977C130.771 92.7831 130.52 93.1487 130.265 93.4922C130.009 93.8331 129.88 94.053 129.875 94.1469C129.868 94.2729 129.933 94.3371 130.067 94.3371C130.15 94.3371 130.274 94.3099 130.439 94.2506C130.608 94.1938 130.817 94.1123 131.068 94.011C131.322 93.9072 131.564 93.8084 131.797 93.7145L131.365 94.725C130.968 94.9523 130.526 95.1648 130.048 95.3624C129.567 95.5601 129.191 95.6589 128.92 95.6589C128.595 95.6589 128.371 95.5848 128.246 95.4366C128.117 95.2883 128.061 95.1252 128.071 94.9449C128.091 94.5817 128.347 94.0629 128.84 93.3908C128.994 93.1833 129.145 92.9808 129.295 92.788C129.448 92.5953 129.549 92.4619 129.599 92.3878C129.755 92.1683 129.783 91.8961 129.435 91.8961C129.148 91.8961 128.777 92.0987 128.325 92.5039C127.825 92.9363 127.417 93.3143 127.097 93.6355C126.78 93.9567 126.389 94.4434 125.925 95.0981C125.465 95.7503 124.935 96.6249 124.345 97.7169C124.107 98.1616 123.945 98.4581 123.863 98.6088C123.78 98.7595 123.676 98.9522 123.546 99.1869L122.33 98.9201C123.03 97.5316 123.727 96.2074 124.421 94.9449C124.477 94.8427 124.533 94.7418 124.588 94.642C124.373 94.7431 124.141 94.8517 124.082 94.8786C123.648 95.0746 123.288 95.2314 123.006 95.3501C122.653 95.4983 122.371 95.5996 122.154 95.6589C121.94 95.7182 121.747 95.7478 121.579 95.7478C121.169 95.7478 120.921 95.5996 120.829 95.3031C120.815 95.1821 120.809 95.0981 120.811 95.0486C120.815 94.9819 120.831 94.8979 120.857 94.7966C120.907 94.6509 120.975 94.515 121.056 94.3865C121.137 94.2605 121.248 94.1098 121.389 93.9344C121.526 93.7615 121.643 93.6107 121.736 93.4798C121.84 93.339 121.92 93.2303 121.979 93.1537C122.04 93.0747 122.083 93.0128 122.106 92.9708C122.131 92.9288 122.144 92.8868 122.147 92.8424C122.152 92.7535 122.103 92.709 122 92.709C121.844 92.709 121.562 92.8498 121.151 93.1315C120.739 93.4107 120.277 93.7862 119.758 94.2531C119.243 94.7225 118.753 95.2241 118.291 95.7626L117.059 95.4662L119.114 92.3557C119.122 92.205 119.109 92.1308 119.075 92.1308C118.975 92.1308 118.579 92.3977 117.886 92.9289C117.49 93.2327 117.156 93.4996 116.887 93.7294C116.615 93.9591 116.326 94.2334 116.021 94.552C115.713 94.8732 115.366 95.2809 114.976 95.7775L113.729 95.4514L114.245 94.6314C114.007 94.7438 113.733 94.8722 113.662 94.9059C112.599 95.4079 111.881 95.6589 111.507 95.6589C111.217 95.6589 110.976 95.5798 110.78 95.4242C110.586 95.2686 110.495 95.0561 110.51 94.7843C110.519 94.6237 110.58 94.4483 110.687 94.2605C110.794 94.0703 111.047 93.6676 111.446 93.0499C110.763 93.0919 109.965 93.2451 109.059 93.5095L107.67 95.7626L106.308 95.3896L106.832 94.5783C106.57 94.7087 106.278 94.8532 106.218 94.8815C105.786 95.0859 105.304 95.2582 104.77 95.397C104.108 95.5724 103.525 95.6589 103.023 95.6589C102.69 95.6589 102.391 95.5996 102.127 95.4835C101.863 95.3649 101.661 95.2092 101.523 95.0141C101.383 94.8189 101.32 94.6089 101.333 94.3841L101.16 94.4746C100.447 95.359 99.6447 96.8173 99.1199 97.838L97.9999 97.3784C98.2686 96.8967 98.6326 96.3927 99.092 95.8639C99.4266 95.481 99.5984 95.2587 99.6102 95.1994L99.5088 95.1277C99.3074 95.2661 99.0698 95.3896 98.7988 95.4983C98.5251 95.6046 98.2914 95.6589 98.0948 95.6589C97.8299 95.6589 97.6483 95.5922 97.5473 95.4612C97.4462 95.3303 97.4024 95.1944 97.4103 95.0511C97.4324 94.6509 97.7056 94.1419 98.2268 93.5243C98.2752 93.4724 98.361 93.3637 98.487 93.1982L98.3868 93.1537C97.8838 93.5959 97.1766 94.1246 96.2681 94.7374C95.3595 95.3526 94.6901 95.6589 94.2656 95.6589C94.0577 95.6589 93.8845 95.5946 93.7521 95.4662C93.6194 95.3402 93.5576 95.1697 93.5692 94.9597C93.5882 94.6138 93.9035 93.9615 94.5118 93.0055C95.4118 91.617 96.1686 90.5003 96.785 89.6553L97.8825 90.1593L95.7588 93.3316C95.5723 93.6132 95.4807 93.7763 95.4782 93.8208C95.4707 93.9567 95.5296 94.0258 95.6549 94.0258C95.9512 94.0258 96.7014 93.544 97.906 92.5756C98.1444 92.3853 98.3531 92.2173 98.5348 92.074C98.7136 91.9307 98.9018 91.7726 99.0995 91.5972C99.2943 91.4243 99.4809 91.2439 99.6535 91.0586C99.829 90.8733 100.021 90.6485 100.235 90.3817L101.368 90.856L100.125 92.6324C99.8488 93.041 99.0337 94.1326 99.019 94.3989C99.0119 94.5274 99.0882 94.5916 99.2449 94.5916C99.2605 94.5916 100.447 93.9345 101.446 93.5663C101.636 93.1167 101.931 92.6768 102.326 92.2445C102.72 91.8146 103.177 91.4218 103.689 91.0735C104.204 90.7226 104.738 90.4459 105.288 90.2433C105.835 90.0383 106.342 89.9369 106.809 89.9369C107.282 89.9369 107.622 90.0333 107.83 90.2236C108.039 90.4138 108.138 90.6337 108.124 90.8857C108.098 91.365 107.736 91.8813 107.039 92.4298C106.342 92.9808 104.99 93.4675 102.984 93.8949C102.957 93.9739 102.942 94.0307 102.94 94.0728C102.93 94.258 103.015 94.4063 103.192 94.515C103.368 94.6262 103.616 94.6805 103.935 94.6805C104.174 94.6805 104.473 94.6385 104.831 94.552C105.189 94.4656 105.551 94.3544 105.918 94.2136C106.203 94.1051 107.018 93.7376 107.527 93.5011L109.969 89.7146L111.123 90.1889L109.592 92.5311C109.756 92.4891 110.13 92.4224 110.713 92.3359C111.261 92.2692 111.674 92.2346 111.95 92.2346L113.176 90.2038L114.345 90.6509L112.62 93.4032C112.508 93.5829 111.942 94.4285 112.481 94.4285C112.692 94.4285 113.069 94.305 113.61 94.0579C113.651 94.0426 114.393 93.7356 114.955 93.5023L117.308 89.7591L118.476 90.2903L116.969 92.5039L117.118 92.5904C117.295 92.4767 117.697 92.1655 118.329 91.6565C119.344 90.8165 120.128 90.3965 120.675 90.3965C120.866 90.3965 121.054 90.4459 121.239 90.5447C121.422 90.6436 121.507 90.8116 121.494 91.0488C121.48 91.3032 121.241 91.6985 120.779 92.2346C120.55 92.5039 120.368 92.7016 120.233 92.8276L120.399 92.9165C121.841 91.7207 122.888 91.1253 123.541 91.1253C123.712 91.1253 123.872 91.1723 124.012 91.2661C124.155 91.3625 124.22 91.5108 124.209 91.7133C124.193 92.0048 123.94 92.4668 123.449 93.1068C123.326 93.2723 123.182 93.4502 123.023 93.6453C122.861 93.838 122.751 93.9789 122.692 94.0604C122.633 94.1444 122.601 94.216 122.598 94.2803C122.592 94.3791 122.641 94.4285 122.743 94.4285C122.808 94.4285 123.348 94.249 124.364 93.8882C124.461 93.8538 124.854 93.7133 125.17 93.6003C125.567 92.8963 125.934 92.2617 126.27 91.6985C126.809 90.7943 127.229 90.1124 127.522 89.6528C127.818 89.1933 128.142 88.6942 128.499 88.1557Z" fill="#70706F" stroke="#70706F" stroke-width="0.0762" stroke-miterlimit="22.9256"></path></svg>